<?xml version="1.0" standalone="no"?><!DOCTYPE svg PUBLIC "-//W3C//DTD SVG 1.1//EN" "http://www.w3.org/Graphics/SVG/1.1/DTD/svg11.dtd"><svg t="1591375411601" class="icon" viewBox="0 0 1024 1024" version="1.1" xmlns="http://www.w3.org/2000/svg" p-id="21294" xmlns:xlink="http://www.w3.org/1999/xlink" width="200" height="200"><defs><style type="text/css"></style></defs><path d="M228.781854 448.144823h567.195367a44.802162 44.802162 0 0 1 44.802162 51.970508l-57.794788 358.417293a44.802162 44.802162 0 0 1-44.802162 37.633816H284.336535a44.802162 44.802162 0 0 1-44.802162-38.081837l-55.55468-358.417294A44.802162 44.802162 0 0 1 221.165487 448.144823z" fill="#FFBB6B" p-id="21295"></path><path d="M796.873265 1023.852601H226.541746a98.116734 98.116734 0 0 1-100.356842-73.475545C123.496774 933.800256 57.189575 563.286379 41.95684 461.585471a107.077166 107.077166 0 0 1 20.608994-89.604323 102.148929 102.148929 0 0 1 78.851805-31.361513 136.646593 136.646593 0 0 1 17.024821 0h705.186026a134.406485 134.406485 0 0 1 17.024821 0 102.148929 102.148929 0 0 1 78.851805 31.361513 106.629145 106.629145 0 0 1 20.608994 89.604323c-13.440649 101.700907-79.747848 472.214784-82.435977 487.895541a98.116734 98.116734 0 0 1-100.356843 74.371589zM142.761704 400.20651a48.386335 48.386335 0 0 0-34.945686 11.648562 56.450724 56.450724 0 0 0-6.720325 42.114032c13.88867 100.356842 81.987956 481.175217 82.435978 486.999498a39.425902 39.425902 0 0 0 44.802162 26.433275h568.539432c36.737773 0 44.802162-25.985254 44.802161-27.329318s68.547307-383.954526 81.987956-484.311369a56.450724 56.450724 0 0 0-6.720324-42.114032 48.386335 48.386335 0 0 0-34.945686-11.648562H142.761704z m82.435977 155.463501a60.93094 60.93094 0 1 0 17.920865-44.802162 61.826983 61.826983 0 0 0-17.920865 44.802162z m451.60579 0a60.93094 60.93094 0 1 0 17.920865-44.802162 61.826983 61.826983 0 0 0-17.920865 44.802162zM772.232076 302.089776a29.121405 29.121405 0 0 1-29.121405-29.121405 224.010809 224.010809 0 0 0-231.179155-212.810268 224.010809 224.010809 0 0 0-231.179154 212.810268 29.121405 29.121405 0 1 1-58.24281 0 281.357576 281.357576 0 0 1 289.421964-272.845165 281.357576 281.357576 0 0 1 289.421965 271.053078 29.121405 29.121405 0 0 1-29.121405 29.121405z" fill="#FF8400" p-id="21296"></path></svg>