<?xml version="1.0" standalone="no"?><!DOCTYPE svg PUBLIC "-//W3C//DTD SVG 1.1//EN" "http://www.w3.org/Graphics/SVG/1.1/DTD/svg11.dtd"><svg t="1591375424286" class="icon" viewBox="0 0 1024 1024" version="1.1" xmlns="http://www.w3.org/2000/svg" p-id="21414" xmlns:xlink="http://www.w3.org/1999/xlink" width="200" height="200"><defs><style type="text/css"></style></defs><path d="M311.366 269.918c-22.056 0-40-17.944-40-40s17.944-40 40-40h160c22.056 0 40 17.944 40 40s-17.944 40-40 40h-160zM890 733.752c27.57 0 50-22.43 50-50s-22.43-50-50-50H134c-27.57 0-50 22.43-50 50s22.43 50 50 50h756z" fill="#A3D6FF" p-id="21415"></path><path d="M918.282 519.142c-0.089-0.198-0.18-0.396-0.274-0.592-16.194-33.513-33.607-56.151-52.646-68.308 0.54-3.91 1.101-8.586 1.508-13.537 1.701-20.664-0.142-34.604-5.82-43.907-8.557-14.02-32.787-46.627-72.876-46.627-18.511 0-37.229 7.174-55.632 21.322-19.276 14.819-38.806 37.889-58.057 68.581-1.026 0.675-6.022 3.327-21.044 3.327-20.138 0-45.729-4.819-62.664-8.008-12.455-2.346-18.654-3.473-23.444-3.473-21.715 0-44.218 6.803-60.562 23.319-8.16-33.163-21.772-58.552-40.658-75.698-19.428-17.639-44.239-26.582-73.744-26.582-14.63 0-27.692 2.138-37.23 3.699-1.837 0.3-3.554 0.582-5.135 0.821-0.631 0.096-1.257 0.222-1.876 0.377-51.997 13.06-96.605 34.973-132.585 65.132-29.018 24.323-52.415 53.944-69.54 88.039-29.119 57.971-29.979 108.879-30.002 111.018a19.999 19.999 0 0 0 19.947 20.209l81.138 0.212c-20.441 20.769-33.075 49.244-33.075 80.618 0 63.411 51.589 115 115 115s115-51.589 115-115c0-31.159-12.462-59.457-32.656-80.189l260.625 0.681c-19.804 20.668-31.991 48.69-31.991 79.507 0 63.411 51.589 115 115 115s115-51.589 115-115c0-30.601-12.017-58.447-31.576-79.072l92.588 0.242c10.085 0 18.597-7.512 19.846-17.525 0.094-0.754 2.313-18.707 3.318-39.707 1.958-40.958-2.42-56.073-5.883-63.879z" fill="#FFFFFF" p-id="21416"></path><path d="M356.365 397.251c-22.056 0-40-17.944-40-40s17.944-40 40-40h70c22.056 0 40 17.944 40 40s-17.944 40-40 40h-70z m-79.005 105.76c16.188-20.212 19.629-40.629 8.367-49.649-3.03-2.427-6.853-3.71-11.054-3.71-12.809 0-26.772 11.735-35.569 22.718-16.189 20.212-19.63 40.629-8.368 49.65 3.031 2.427 6.853 3.71 11.055 3.71 12.808-0.001 26.772-11.737 35.569-22.719z" fill="#FADA17" p-id="21417"></path><path d="M938.73 633.55c0.93-2.66 1.6-5.45 1.96-8.35 0.1-0.78 2.41-19.47 3.45-41.23 2.14-44.69-2.93-62.45-7.58-72.94-0.17-0.4-0.36-0.79-0.54-1.18-13.98-28.93-28.75-50.21-45.15-65.05-1.43-1.29-2.86-2.53-4.31-3.72l0.24-2.73c2.1-25.44-0.57-42.7-8.66-55.94-6.69-10.97-14.65-20.71-23.67-28.99-19.42-17.83-42.35-27.25-66.3-27.25-23.02 0-45.84 8.57-67.82 25.47-20.04 15.41-39.3 37.49-58.69 67.35-1.9 0.22-4.59 0.41-8.22 0.41-18.27 0-42.76-4.61-58.96-7.66-12.65-2.38-20.28-3.82-27.15-3.82-13.01 0-31.34 2.09-49.56 11.16a190.26 190.26 0 0 0-3.65-8.91c-7.5-17.03-17.06-31.63-28.49-43.52 0.49-3.06 0.74-6.2 0.74-9.4 0-33.08-26.92-60-60-60h-15v-7.33h60c33.08 0 60-26.92 60-60 0-33.09-26.92-60-60-60h-160c-33.09 0-60 26.91-60 60 0 33.08 26.91 60 60 60h60v7.33h-15c-30.3 0-55.42 22.58-59.44 51.79-35.59 13.63-67.15 31.92-94.23 54.62-31.13 26.08-56.21 57.84-74.57 94.39a312.092 312.092 0 0 0-27.76 82.08c-4.09 21.6-4.35 36.12-4.37 37.7-0.02 2.3 0.15 4.58 0.52 6.82C76.99 637.08 64 658.93 64 683.75c0 38.6 31.4 70 70 70h34.47c6.02 22.79 17.97 43.68 35.08 60.79 25.5 25.5 59.4 39.54 95.46 39.54s69.96-14.04 95.46-39.54c17.11-17.11 29.06-38 35.08-60.79h164.9c6.02 22.79 17.97 43.68 35.08 60.79 25.5 25.5 59.4 39.54 95.46 39.54s69.96-14.04 95.46-39.54c17.11-17.11 29.06-38 35.08-60.79H890c38.6 0 70-31.4 70-70 0-19.68-8.16-37.48-21.27-50.2z m-371.4-185.63c9.14 0 52.61 11.48 86.11 11.48 16.75 0 31-2.87 37.23-11.48 39.35-63.19 72.32-81.75 97.5-81.75 33.28 0 52.97 32.4 55.83 37.08 2.44 4.01 3.36 10.77 3.47 18.19a80.525 80.525 0 0 0-17.29-1.85c-22.46 0-44.72 9.31-66.17 27.67-14.82 12.69-26.95 27.49-36.69 39.38-3.18 3.88-7.33 8.95-9.8 11.61-8.75 3.93-27.09 9.21-62.37 9.21-48.12 0-99.84-10.23-111.38-14.12-7.06-2.37-9.8-5.32-11.24-12.35a329.08 329.08 0 0 0-3.59-22.2c14.68-10 31.39-10.87 38.39-10.87z m-255.96-198c-11 0-20-9-20-20s9-20 20-20h160c11 0 20 9 20 20s-9 20-20 20h-160z m45 87.33h70c11 0 20 9 20 20 0 9.21-6.31 17.02-14.82 19.31-1.65 0.45-3.39 0.69-5.18 0.69h-70c-3.43 0-6.66-0.87-9.48-2.41-6.25-3.39-10.52-10.02-10.52-17.59 0-11 9-20 20-20z m-51.07 51.46c10.57 17.11 29.51 28.54 51.07 28.54h70c14.47 0 27.77-5.15 38.15-13.72 7.97 10.78 14.92 24.73 20.24 42.71 3.5 11.84 6.31 25.43 8.24 41.01 1.6 8.82 4.73 17.12 9.94 24.28 6.14 8.48 15.19 15.38 28.06 19.72 9.46 3.19 33.87 8.54 63.59 12.22 18.87 2.33 39.88 3.99 60.56 3.99 16.52 0 32.82-1.06 47.66-3.67 13.62-2.41 26.01-6.12 36.19-11.54 15.16-8.07 49.12-72.66 91.18-72.66 4.43 0 8.96 0.72 13.56 2.3 12.25 4.2 25.05 14.5 38.17 33.59 5.97 8.68 12.01 19.19 18.09 31.77 8.16 18.41 3.46 70.37 1.62 87.47a69.55 69.55 0 0 0-11.62-0.97h-80.55c-23.88-19.23-53.37-29.67-84.46-29.67-31.09 0-60.58 10.44-84.46 29.67H383.47c-23.88-19.23-53.37-29.67-84.46-29.67-31.09 0-60.58 10.44-84.46 29.67h-78.34c1.75-26.56 18.06-163.83 169.09-225.04zM164.11 713.75H134c-16.5 0-30-13.5-30-30 0-12.51 7.76-23.3 18.71-27.77 3.49-1.44 7.3-2.23 11.29-2.23h46.81c-10.13 18.25-15.88 38.69-16.7 60z m223.38 40c-13.85 35.32-48.24 60.33-88.48 60.33s-74.63-25.01-88.48-60.33c-4.21-10.74-6.52-22.43-6.52-34.67 0-1.79 0.05-3.57 0.15-5.33 1.28-23.2 10.88-44.17 25.87-60 17.32-18.27 41.82-29.67 68.98-29.67 27.16 0 51.66 11.4 68.98 29.67 14.99 15.83 24.59 36.8 25.87 60 0.1 1.76 0.15 3.54 0.15 5.33 0 12.24-2.31 23.93-6.52 34.67z m202.6-40H433.91c-0.82-21.31-6.57-41.75-16.7-60h189.58c-10.13 18.25-15.88 38.69-16.7 60z m223.38 40c-13.85 35.32-48.24 60.33-88.48 60.33s-74.63-25.01-88.48-60.33c-4.21-10.74-6.52-22.43-6.52-34.67 0-1.79 0.05-3.57 0.15-5.33 1.28-23.2 10.88-44.17 25.87-60 17.32-18.27 41.82-29.67 68.98-29.67 27.16 0 51.66 11.4 68.98 29.67 14.99 15.83 24.59 36.8 25.87 60 0.1 1.76 0.15 3.54 0.15 5.33 0 12.24-2.31 23.93-6.52 34.67z m76.53-40h-30.11c-0.82-21.31-6.57-41.75-16.7-60H890c6.66 0 12.84 2.2 17.83 5.91 7.37 5.48 12.17 14.25 12.17 24.09 0 16.5-13.5 30-30 30z m-561.47 0c0.32 1.73 0.48 3.51 0.48 5.33 0 16.57-13.43 30-30 30s-30-13.43-30-30c0-1.82 0.16-3.6 0.48-5.33 2.51-14.03 14.77-24.67 29.52-24.67s27.01 10.64 29.52 24.67zM224.48 529.82c4.83 3.87 10.81 5.91 17.31 5.91 13.89 0 30.1-9.89 43.37-26.47 7.33-9.14 12.78-19.28 15.37-28.54 5.82-20.89-4.04-31.55-8.55-35.16a26.428 26.428 0 0 0-8.02-4.41c-2.92-0.99-6.04-1.5-9.29-1.5-13.88 0-30.1 9.9-43.37 26.47-7.32 9.14-12.78 19.28-15.36 28.54-5.83 20.89 4.03 31.55 8.54 35.16z m22.43-51.2c9.32-11.64 20.45-18.97 27.76-18.97 1.89 0 3.52 0.49 4.81 1.52 6.25 5.01 1.81 20.94-9.93 35.59-9.32 11.64-20.45 18.97-27.76 18.97-1.89 0-3.52-0.49-4.8-1.52-6.26-5-1.81-20.94 9.92-35.59z m507.6 235.13c0.32 1.73 0.48 3.51 0.48 5.33 0 16.57-13.43 30-30 30s-30-13.43-30-30c0-1.82 0.16-3.6 0.48-5.33 2.51-14.03 14.77-24.67 29.52-24.67s27.01 10.64 29.52 24.67z" fill="#BD7800" p-id="21418"></path></svg>