<?xml version="1.0" standalone="no"?><!DOCTYPE svg PUBLIC "-//W3C//DTD SVG 1.1//EN" "http://www.w3.org/Graphics/SVG/1.1/DTD/svg11.dtd"><svg t="1591863912554" class="icon" viewBox="0 0 1024 1024" version="1.1" xmlns="http://www.w3.org/2000/svg" p-id="1158" xmlns:xlink="http://www.w3.org/1999/xlink" width="200" height="200"><defs><style type="text/css"></style></defs><path d="M150.117517 873.8818A508.585989 508.585989 0 0 0 512.135168 1023.7952c136.737951 0 265.215646-53.247929 361.949384-149.9134A508.312922 508.312922 0 0 0 1023.997952 512.000683c0-136.669684-53.247929-265.283913-149.9134-361.949384A508.381189 508.381189 0 0 0 512.135168 0.001365c-136.80621801 0-265.283913 53.247929-362.017651 149.9134a508.381189 508.381189 0 0 0-149.9134 361.949385c0 136.80621801 53.247929 265.283913 149.9134 361.949384zM512.135168 53.93196C764.584965 53.93196 970.067357 259.414353 970.067357 512.000683 970.067357 764.382213 764.584965 969.864606 511.998635 969.864606c-252.518063 0-458.000456-205.482393-458.000456-458.068723 0-252.518063 205.482393-458.000456 458.068722-458.000456z" fill="#FFBF00" p-id="1159"></path><path d="M595.010791 272.385002a22.186637 22.186637 0 0 1 15.701312 37.88795l-206.233325 206.301591L610.712103 722.944401a22.186637 22.186637 0 0 1-31.402625 31.402625l-222.002904-222.002904a22.186637 22.186637 0 0 1 0-31.402625l222.002904-222.002904a22.118371 22.118371 0 0 1 15.701313-6.485324z" fill="#FFBF00" p-id="1160"></path></svg>