<?xml version="1.0" standalone="no"?><!DOCTYPE svg PUBLIC "-//W3C//DTD SVG 1.1//EN" "http://www.w3.org/Graphics/SVG/1.1/DTD/svg11.dtd"><svg t="1591783461509" class="icon" viewBox="0 0 1024 1024" version="1.1" xmlns="http://www.w3.org/2000/svg" p-id="5712" xmlns:xlink="http://www.w3.org/1999/xlink" width="200" height="200"><defs><style type="text/css"></style></defs><path d="M873.882483 150.1182A508.585989 508.585989 0 0 0 511.864832 0.2048c-136.737951 0-265.215646 53.247929-361.949384 149.9134A508.312922 508.312922 0 0 0 0.002048 511.999317c0 136.669684 53.247929 265.283913 149.9134 361.949384A508.381189 508.381189 0 0 0 511.864832 1023.998635c136.806218 0 265.283913-53.247929 362.017651-149.9134a508.381189 508.381189 0 0 0 149.9134-361.949385c0-136.806218-53.247929-265.283913-149.9134-361.949384zM511.864832 970.06804C259.415035 970.06804 53.932643 764.585647 53.932643 511.999317 53.932643 259.617787 259.415035 54.135394 512.001365 54.135394c252.518063 0 458.000456 205.482393 458.000456 458.068723 0 252.518063-205.482393 458.000456-458.068722 458.000456z" fill="#FFBF00" p-id="5713"></path><path d="M428.989209 751.614998a22.186637 22.186637 0 0 1-15.701312-37.88795l206.233325-206.301591L413.287897 301.055599a22.186637 22.186637 0 0 1 31.402625-31.402625l222.002904 222.002904a22.186637 22.186637 0 0 1 0 31.402625l-222.002904 222.002904a22.118371 22.118371 0 0 1-15.701313 6.485324z" fill="#FFBF00" p-id="5714"></path></svg>