<?xml version="1.0" standalone="no"?><!DOCTYPE svg PUBLIC "-//W3C//DTD SVG 1.1//EN" "http://www.w3.org/Graphics/SVG/1.1/DTD/svg11.dtd"><svg t="1591375445279" class="icon" viewBox="0 0 1024 1024" version="1.1" xmlns="http://www.w3.org/2000/svg" p-id="21663" xmlns:xlink="http://www.w3.org/1999/xlink" width="200" height="200"><defs><style type="text/css"></style></defs><path d="M988 1023c0-164.642 0-329.284 0.005-493.926 0-1.998 0.071-3.996 0.109-5.994 0.231-0.719 0.527-0.746 0.886-0.08 0 165.167 0.004 330.333-0.063 495.5 0.001 1.464 1.155 3.391-0.937 4.5z" fill="#FFFFFF" p-id="21664"></path><path d="M989 523a6.412 6.412 0 0 1-0.886 0.08l0.001-67.168c0.307-0.089 0.602-0.061 0.885 0.088v67z" fill="#B5C5E6" p-id="21665"></path><path d="M988.474 1016.609c0.029-164.517 0.027-329.032 0.027-493.55-0.012-22.256 0.022-44.512-0.019-66.771-1.357-4.88-5.925-4.399-9.361-5.149-52.235-11.413-104.462-22.864-156.704-34.244-62.658-13.648-125.392-26.944-188.008-40.785-11.069-2.448-11.071-2.48-11.072-13.688-0.003-113.477-0.001-226.953-0.003-340.43 0-2.833 0.064-5.668-0.092-8.497-0.327-5.885-2.004-7.343-7.928-6.436-4.275 0.656-8.55 1.399-12.782 2.302-61.086 13.044-121.998 26.877-183.045 40.103-57.139 12.378-114.297 24.661-171.417 37.13-52.889 11.544-105.767 23.135-158.677 34.583-10.467 2.264-10.649 2.651-10.721 13.188-0.011 1.667-0.007 3.333-0.007 4.999 0 289.773 0 579.548 0.002 869.321 0 3-0.015 5.998 0.086 8.997 0.069 2.079 0.511 3.96 2.246 5.316h907c0.994-2.063 0.474-4.263 0.475-6.389z m-599.303-60.648H335.83c-0.033-39.3-0.039-78.6-0.151-117.899-0.009-3.075 0.642-4.416 4.091-4.378 15.152 0.169 30.31 0.169 45.462 0 3.449-0.038 4.1 1.303 4.091 4.378-0.112 39.3-0.119 78.6-0.152 117.899z m165.177-5.448c0.002 4.176-0.772 5.694-5.396 5.667-29.159-0.174-58.321 0.009-87.482 0.053-1.826 0.003-3.651-0.164-5.478-0.253-2.482-1.896-2.258-4.68-2.292-7.313-0.126-9.99-0.051-19.981-0.054-29.973-0.007-45.794-0.001-91.588-0.005-137.381 0-2.164 0.028-4.329-0.109-6.492-0.215-3.364-1.975-5.166-5.359-5.364-1.83-0.106-3.662-0.1-5.493-0.1-53.454-0.005-106.906-0.005-160.36 0-1.832 0-3.663-0.008-5.493 0.1-3.386 0.198-5.145 2-5.358 5.364-0.148 2.329-0.11 4.661-0.11 6.992-0.008 54.618 0.026 109.237-0.057 163.856-0.006 3.53 1 7.445-2.294 10.312-1.993 0.088-3.985 0.252-5.978 0.253-35.996 0.015-71.992 0.029-107.988-0.005-8.161-0.008-7.296 0.938-7.297-7.097-0.019-124.485-0.013-248.972-0.013-373.458 0-129.984-0.011-259.971 0.027-389.956 0.002-7.966-1.454-6.905 7.212-8.791 131.283-28.56 262.569-57.104 393.83-85.768 4.396-0.959 5.57-0.299 5.568 4.45a1194217.4 1194217.4 0 0 0-0.021 854.904z m366.91-70.482c-0.004 23.826-0.132 47.65-0.17 71.478-0.005 2.586 0.323 4.815-3.639 4.799-33.825-0.143-67.651-0.108-101.479-0.139-0.325 0-0.652-0.123-0.979-0.188-2.926-2.366-2.288-5.73-2.297-8.807-0.088-27.962-0.035-55.924-0.048-83.886-0.007-11.928-0.013-11.936-11.923-11.937-13.814 0-27.63-0.06-41.443 0.028-6.668 0.042-7.874 1.222-7.896 7.912-0.089 29.127 0.017 58.255-0.083 87.382-0.01 3.227 0.763 6.776-2.295 9.307-8.824 0.087-17.647 0.241-26.473 0.251-31.827 0.029-63.654-0.079-95.479 0.112-4.585 0.027-6.185-0.811-6.18-5.879 0.149-167.299 0.148-334.597 0.001-501.896-0.005-5.014 1.52-5.176 5.59-4.286 96.458 21.063 192.933 42.06 289.435 62.919 4.283 0.926 5.463 2.633 5.459 6.905-0.114 121.976-0.082 243.95-0.101 365.925z" fill="#4282C4" p-id="21666"></path><path d="M269.008 955.981c-0.002-61.284 0.038-122.568-0.103-183.854-0.01-4.114 0.963-5.238 5.166-5.228 58.953 0.146 117.905 0.146 176.857 0 4.202-0.012 5.175 1.112 5.166 5.228-0.14 61.284-0.1 122.568-0.103 183.854-22.274-0.008-44.547-0.015-66.821-0.021-3.125-2.241-2.463-5.637-2.473-8.704-0.094-29.478-0.036-58.955-0.054-88.433-0.003-5.329 0.138-10.662-0.071-15.986-0.192-4.88-1.522-6.32-6.338-6.399a1061.9 1061.9 0 0 0-35.472 0.002c-5.064 0.086-6.329 1.611-6.366 7.396-0.116 18.152-0.028 36.307-0.047 54.458-0.016 16.654 0.062 33.31-0.051 49.962-0.019 2.781 0.334 5.775-2.471 7.705l-66.819 0.02zM749.008 955.981c-0.003-33.945 0.068-67.892-0.104-101.836-0.021-4.081 0.902-5.309 5.143-5.253 18.8 0.247 37.605 0.224 56.406 0.012 3.826-0.043 4.645 1.092 4.629 4.741-0.142 34.111-0.087 68.224-0.09 102.336h-65.984z" fill="#D2A838" p-id="21667"></path><path d="M39.136 4.188h194.218l0.001 0.49H39.167l-0.031-0.49z" fill="#5087C7" p-id="21668"></path><path d="M749.001 601.121c0-13.985 0.087-27.972-0.066-41.956-0.033-3.165 0.729-4.27 4.101-4.241a3507.7 3507.7 0 0 0 57.938 0c3.386-0.028 4.102 1.099 4.089 4.249-0.107 28.304-0.104 56.608-0.004 84.912 0.012 2.966-0.658 4.012-3.844 3.988a3832.828 3832.828 0 0 0-58.438 0c-3.196 0.023-3.864-1.042-3.836-3.997 0.134-14.317 0.06-28.637 0.06-42.955zM814.999 720.618c0 14.151-0.075 28.305 0.061 42.456 0.028 2.95-0.633 4.022-3.834 3.999a3845.776 3845.776 0 0 0-58.438-0.001c-3.181 0.023-3.856-1.016-3.846-3.984 0.101-28.471 0.092-56.94 0.009-85.412-0.008-2.728 0.636-3.754 3.574-3.734 19.646 0.118 39.293 0.15 58.938-0.021 3.533-0.031 3.585 1.638 3.571 4.242-0.073 14.15-0.035 28.303-0.035 42.455zM456.093 270.147c0.01-4.093-0.92-5.278-5.15-5.25-29.485 0.197-58.974 0.104-88.46 0.104s-58.975 0.097-88.461-0.106c-4.285-0.03-5.122 1.246-5.113 5.287a41404 41404 0 0 1 0.009 176.922c-0.007 3.834 0.871 5 4.889 4.989 59.14-0.138 118.281-0.141 177.42 0.004 4.085 0.012 4.855-1.263 4.849-5.028a41902.85 41902.85 0 0 1 0.017-176.922z m-66.823 88.337c0 7.487-0.114 14.978 0.056 22.462 0.069 3.087-0.658 4.408-4.098 4.37-15.14-0.168-30.283-0.165-45.424-0.002-3.393 0.036-4.157-1.211-4.13-4.336 0.128-14.975 0.124-29.951 0.002-44.926-0.024-3.082 0.657-4.407 4.096-4.369 15.141 0.168 30.284 0.165 45.425 0.002 3.393-0.036 4.206 1.207 4.131 4.337-0.18 7.484-0.058 14.974-0.058 22.462zM456.093 521.157c0.009-4.078-0.895-5.289-5.141-5.26-29.485 0.197-58.974 0.104-88.46 0.104-29.487 0-58.975 0.096-88.459-0.105-4.271-0.029-5.133 1.223-5.124 5.277 0.136 58.975 0.128 117.948 0.012 176.922-0.008 3.814 0.84 5.012 4.877 5.002 59.14-0.141 118.281-0.142 177.421 0.002 4.067 0.01 4.866-1.236 4.859-5.02-0.112-58.975-0.122-117.948 0.015-176.922z m-70.416 115.137c-15.474-0.114-30.95-0.119-46.423 0.002-3 0.023-3.577-1.232-3.562-3.868 0.083-15.309 0.089-30.617-0.003-45.925-0.018-2.718 0.724-3.818 3.635-3.797 15.474 0.114 30.95 0.119 46.423-0.002 3-0.023 3.604 1.229 3.563 3.869-0.117 7.652-0.042 15.308-0.042 22.962 0 7.653-0.086 15.31 0.046 22.962 0.046 2.72-0.726 3.818-3.637 3.797z" fill="#D2A838" p-id="21669"></path></svg>