<?xml version="1.0" standalone="no"?><!DOCTYPE svg PUBLIC "-//W3C//DTD SVG 1.1//EN" "http://www.w3.org/Graphics/SVG/1.1/DTD/svg11.dtd"><svg t="1591333075612" class="icon" viewBox="0 0 1024 1024" version="1.1" xmlns="http://www.w3.org/2000/svg" p-id="9360" xmlns:xlink="http://www.w3.org/1999/xlink" width="200" height="200"><defs><style type="text/css"></style></defs><path d="M328.294 562.278a22.426 22.426 0 0 1 22.426-22.425h303.616a22.426 22.426 0 0 1 0 44.749h-218.01a231.526 231.526 0 0 1 100.455 92.876h31.744a22.426 22.426 0 0 1 0 44.75h-11.879a230.707 230.707 0 0 1-9.318 165.273h109.773A121.549 121.549 0 0 0 778.24 766.157V545.894l-1.229-127.18a72.909 72.909 0 0 0-20.48-50.176l-2.56-2.663-45.568-45.568a15.053 15.053 0 0 0-19.251-1.536 286.72 286.72 0 0 1-100.147 42.496 15.565 15.565 0 0 0-10.24 8.602 74.547 74.547 0 1 1-15.565-86.426 14.234 14.234 0 0 0 13.107 4.096 219.955 219.955 0 0 0 52.839-19.456 14.95 14.95 0 0 0 3.379-23.757l-37.581-37.683a121.549 121.549 0 0 0-171.827 0L262.144 366.9l-2.765 3.789a72.909 72.909 0 0 0-13.619 42.803v167.731a229.478 229.478 0 0 1 82.842-18.739z" fill="#FFBA00" p-id="9361"></path><path d="M526.95 305.766a22.016 22.016 0 0 0-23.244 21.914 22.426 22.426 0 0 0 21.401 23.347h4.608c21.607 0 112.64-4.096 182.477-70.246l1.126-1.127a147.046 147.046 0 0 0 32.564-123.596 22.426 22.426 0 1 0-43.725 9.523 101.171 101.171 0 0 1-21.402 83.353c-64.205 59.495-152.78 56.832-153.805 56.832z" fill="#FFBA00" p-id="9362"></path><path d="M676.762 562.278a22.426 22.426 0 0 0-22.426-22.425H350.618a22.426 22.426 0 0 0-22.426 22.425h8.806a229.683 229.683 0 0 1 99.226 22.426h218.112a22.426 22.426 0 0 0 22.426-22.426zM590.95 700.006a22.426 22.426 0 0 0-22.425-22.425H536.78a229.376 229.376 0 0 1 19.865 44.749h11.879a22.426 22.426 0 0 0 22.425-22.324z" fill="#FFFFFF" p-id="9363"></path><path d="M367.002 887.603h180.224a230.707 230.707 0 0 0 9.318-165.273h-197.12a22.426 22.426 0 1 1 0-44.75h177.357a231.526 231.526 0 0 0-100.455-92.876h-85.708a22.426 22.426 0 0 1-22.324-22.22 229.478 229.478 0 0 0-82.534 18.738v184.935a121.549 121.549 0 0 0 121.242 121.446z" fill="#FFBA00" p-id="9364"></path><path d="M367.002 887.603h180.224a230.707 230.707 0 0 0 9.318-165.273h-197.12a22.426 22.426 0 1 1 0-44.75h177.357a231.526 231.526 0 0 0-100.455-92.876h-85.708a22.426 22.426 0 0 1-22.324-22.22 229.478 229.478 0 0 0-82.534 18.738v184.935a121.549 121.549 0 0 0 121.242 121.446z" fill="#FEC744" p-id="9365"></path><path d="M328.294 562.483a22.426 22.426 0 0 0 22.324 22.221h85.606a229.683 229.683 0 0 0-99.226-22.426z" fill="#FFFFFF" p-id="9366"></path><path d="M328.294 562.483a22.426 22.426 0 0 0 22.324 22.221h85.606a229.683 229.683 0 0 0-99.226-22.426zM359.424 677.58a22.426 22.426 0 1 0 0 44.75h197.222a229.376 229.376 0 0 0-19.865-44.75z" fill="#FFFFFF" p-id="9367"></path><path d="M359.424 677.58a22.426 22.426 0 1 0 0 44.75h197.222a229.376 229.376 0 0 0-19.865-44.75z" fill="#FFFFFF" p-id="9368"></path></svg>